<svg id="SvgjsSvg1001" width="288" height="288" xmlns="http://www.w3.org/2000/svg" version="1.1" xmlns:xlink="http://www.w3.org/1999/xlink" xmlns:svgjs="http://svgjs.com/svgjs"><defs id="SvgjsDefs1002"></defs><g id="SvgjsG1008"><svg xmlns="http://www.w3.org/2000/svg" viewBox="0 0 500 500" width="288" height="288"><g class="layer"><path fill="url(#a)" fill-rule="evenodd" d="m304.42,127.88c-5.86,1.52 -14.5,6.59 -19.37,11.36c-5.69,5.57 -8.15,9.73 -13.46,22.76c-2.13,5.22 -4.66,11.3 -5.62,13.5c-2.62,6 -14.7,34.49 -23.95,56.5c-4.51,10.72 -8.8,20.85 -9.52,22.5c-0.73,1.65 -2.56,5.93 -4.07,9.5c-1.5,3.57 -4.21,9.88 -6.01,14c-12.26,28.1 -15.39,37.51 -15.41,46.36c-0.03,17.31 8.28,30.72 23.81,38.4c7.23,3.57 8.03,3.74 17.63,3.74c7.17,0 11.56,-0.53 15.31,-1.83c7.31,-2.55 16.84,-9.98 20.57,-16.05c2.73,-4.44 14.83,-31.22 19.69,-43.58c2.11,-5.37 3.67,-6.17 4.57,-2.36c2.08,8.86 12.99,44.44 14.67,47.82c6.68,13.48 22.78,23.5 37.76,23.5c16.17,0 32.04,-10.48 39.34,-25.98c4.15,-8.83 4.86,-20.79 1.79,-30.16c-1.15,-3.5 -2.5,-8.16 -3,-10.36c-0.5,-2.2 -3.24,-11.87 -6.08,-21.5c-2.83,-9.62 -7.39,-25.37 -10.12,-35c-8.06,-28.39 -10,-35.09 -12.48,-43c-1.29,-4.12 -3.32,-11.1 -4.51,-15.5c-1.19,-4.4 -3.62,-12.72 -5.4,-18.5c-1.79,-5.78 -3.79,-12.75 -4.46,-15.5c-2.9,-12.04 -12.58,-23.28 -24.65,-28.63c-5.37,-2.38 -21.07,-3.54 -27.03,-1.99m-106.52,2.57c-14.25,3.93 -24.16,12 -30.21,24.6c-1.97,4.1 -5.81,12.85 -8.53,19.45c-2.73,6.6 -6.62,15.82 -8.64,20.5c-2.02,4.68 -4.28,10.07 -5.02,12c-0.74,1.93 -2.9,7.1 -4.78,11.5c-7.37,17.14 -23.31,54.68 -28.89,68c-3.23,7.7 -6.29,14.9 -6.81,16c-8.47,18 -8.91,28.84 -1.77,43.5c4.03,8.3 10.54,14.79 19.01,18.95c12.12,5.97 28.65,5.29 40.52,-1.66c10.82,-6.35 15.21,-13.33 28.19,-44.79c8.18,-19.8 24.8,-59.04 42.79,-101c14.35,-33.48 14.58,-34.13 15.02,-42.6c1.16,-22.31 -12.56,-40.07 -34.58,-44.77c-6.54,-1.39 -10.36,-1.32 -16.3,0.32"></path></g><defs><linearGradient id="a" x1="0" x2="1" y1="0" y2="0"><stop offset="0" stop-color="#f6f6ff" stop-opacity=".99" class="stopColor00f svgShape"></stop><stop offset="1" stop-color="#ffffff" class="stopColor5988ff svgShape"></stop></linearGradient></defs></svg></g></svg>